<svg data-v-4c622a5e="" xmlns="http://www.w3.org/2000/svg" viewBox="0 0 512 512" id="sandalwood"><path data-v-4c622a5e="" d="M260.1 51.5c.3 0 2.5.2 5.6.2 7.7 0 21.6-.8 28.9-5.9 3.4-2.4 2.6-5.2 2.3-6-2.3-5.9-18-8.5-25-7.5-1.5.2-2.5 1.6-2.3 3.1v.2c.2 1.4 1.6 2.4 3.1 2.2 6.7-.9 16.4 1.8 18.8 3.7-9 6-30.9 4.7-31 4.7-13.4-1.2-19.2-4-19.7-4.8 0 0 .2-.5 1.5-1.4 1.1-.8 1.4-2.4.7-3.6-.8-1.3-2.4-1.7-3.7-1-3.9 2.6-4.2 5.3-3.7 7 1.5 5.7 14 8.1 24.5 9.1zM198 337.8c.4.2.8.3 1.2.3 1 0 2-.6 2.5-1.5 3.7-7.9 6.7-16.1 8.8-24.6 2.9-12.5 5.3-29 5.4-29.6l-3.6-119v-.1c-.1-1.5-1.3-2.6-2.8-2.6-1.5 0-2.7 1.3-2.6 2.8l3.6 118.5c0 .2-2.4 16.4-5.2 28.7-2 8.1-4.8 15.9-8.4 23.4-.8 1.5-.3 3.1 1.1 3.7zm12.6 50.7c-3.5-1.6-7.6-.4-9.8 2.8-21.6 29.8 5.5 55.2 5.8 55.5.5.5 1.2.7 1.9.7 2 0 12.3-1.6 15.6-34 1.1-10.8-6.4-22.3-13.5-25zm8.1 24.4c-2.1 20.3-7 27.2-9.4 28.8-4.5-4.7-20.6-24.2-4-47.2.4-.7 1.2-1.2 2-1.2.5 0 1 .1 1.4.3 4.6 1.7 10.9 10.6 10 19.3zm20.1-97.5c.6-1.4 0-3-1.4-3.6-1.4-.6-3 0-3.6 1.4-3.1 7 .5 22.6 5 42.4 6.4 27.8 14.4 62.3 5.7 82.4-.6 1.4 0 3 1.4 3.6.3.2.7.2 1.1.2 1.1 0 2.1-.6 2.5-1.6 9.5-21.8 1.2-57.3-5.4-85.8-3.9-17.4-7.7-33.7-5.3-39zm77.9 73.7c-2.4-9.9-4.3-19.9-5.8-29.9-2-15 0-89.9 0-90.6 0-1.5-1.2-2.8-2.7-2.8-1.5 0-2.7 1.2-2.7 2.7-.1 3.1-2 76 0 91.4 1.4 10.2 3.4 20.4 5.9 30.5.7 3.4 1.5 6.5 2 9.2.3 1.3 1.4 2.2 2.6 2.2h.6c1.5-.3 2.4-1.7 2.1-3.2-.5-2.9-1.2-6.1-2-9.5z"></path><path data-v-4c622a5e="" d="M341.3 311.5c-.9-8.8-1.7-15.7-1.9-19.6-2-34.9 6-239.1 6-241.8C345.1 48.4 336 6 253.3 6c-74 0-78.6 35.9-78.7 37.7l-1 244.4c0 1.1-4 112.1-6.9 150.1l-.2 2.8c-1.2 14.7-2.4 31.3-2.2 38.8.3 8.3 2.6 14.5 6.9 18.5 3 2.8 7 4.4 11.1 4.4.5 0 .9-.2 1.3-.4.5.6 1.2 1 2 1.1.6 0 41.1 2.6 77.8 2.6 13.4 0 26.4-.4 36.7-1.3 38.9-3.5 45.4-15.1 46-16.4.2-.4.3-.8.3-1.2 0-.3-.7-32 .9-61 2-38.2-3-86-6-114.6zm-88-300c77.6 0 86.6 39.1 86.7 39.1 0 .6-.1 2.2-.2 4.6-.6.3-1.1.8-1.4 1.4-13.7 31.3-92.8 21-118.8 17.6-37.3-4.9-38.8-28.8-38.8-29.8 0-.6-.3-1.2-.7-1.7 1.6-5.8 11.7-31.2 73.2-31.2zm9.7 72.2c-.1.4-.7 4.7-1.4 18-.5 10.5-7.5 27.3-13.6 29.4-.6.2-2.1.7-4.1-1.8-8.8-10.3-9.4-27.2-10-42.1l-.1-3.5v-.2c-.1-1.2-1-2.2-2.2-2.4 10.1 1.2 20.8 2.2 31.4 2.6zm78.8 342c-1.4 26.6-1 55.3-.9 60.6-1.6 2-10 10.1-41.3 13-37.8 3.4-112.9-1.2-113.6-1.3h-.2c-.5 0-1 .2-1.4.4-.6-.7-1.4-1.1-2.3-1.1-2.7-.1-5.2-1.2-7.1-3-3.2-3-5-7.9-5.2-14.7-.2-7.2 1-23.6 2.2-38.2l.2-2.8c2.9-38.1 6.9-149.3 6.9-150.5l.9-230.3c5.1 8.6 15.9 18.8 39.1 21.8 3.9.5 7.9 1 12 1.5h-.3c-1.5.1-2.6 1.5-2.5 3l.2 3.4c.6 15.8 1.3 33.7 11.3 45.4 3.9 4.6 7.9 4.1 10 3.4 9.9-3.3 16.8-24.1 17.3-34.3.7-13.3 1.3-17.4 1.3-17.4v-.7c9.8.3 19.6 0 29.3-1-1.4 12.1-4.5 66.2-3.2 93.9.1 1.5 1.4 2.6 2.8 2.6 1.5-.1 2.7-1.3 2.6-2.8-1.3-28.4 2-84.7 3.3-94v-.4c15.7-2.4 28.8-7.5 36.2-16.8-1.8 48.2-7.2 196.9-5.5 226.9.2 4 1 11 1.9 19.8 3 28.4 8 75.9 6 113.6zm-94.7 16.1h-.1zm69-40.1c-.1 0-.1 0 0 0-.1 0-.1 0 0 0z"></path><path data-v-4c622a5e="" d="M271.2 271.5c3.2-23.9 1.2-35.4-1.3-49.9-.7-4.2-1.5-8.6-2.2-13.8-.3-1.4-1.5-2.3-2.9-2.2-1.5.1-2.6 1.5-2.5 3 .7 5.2 1.5 9.8 2.3 14 2.5 14.6 4.4 25.2 1.3 48.2-2.1 15.9 2.6 60.8 7.1 104.1 4.2 39.8 8.5 80.9 7.2 97.2-.1 1.5 1 2.8 2.5 2.9h.2c1.4 0 2.6-1.1 2.7-2.5 1.3-16.7-2.8-56.3-7.2-98.2-4.6-43-9.2-87.5-7.2-102.8z"></path></svg>