<svg data-v-4c622a5e="" xmlns="http://www.w3.org/2000/svg" viewBox="0 0 512 512" id="cedar"><path data-v-4c622a5e="" d="M439.7 342.5c-5.7-3.9-24.6-10.3-46.5-17.7-23.4-8-52.5-17.8-58.1-22.8-13.1-11.6-19-22.3-18.2-26.8.1-.9.8-1.7 1.7-1.9 1.4-.5 4.7 1.2 7.6 2.7 4.8 2.5 10.7 5.6 17.3 4.5 4.7-.8 7.6-3.6 10.1-6.1 1.8-2 4-3.6 6.5-4.8 1.3-.5 3.2.7 6.1 2.8 4.5 3.3 10.8 7.8 19.8 4.9 4.4-1.4 7-4.8 9-7.5 2.9-3.8 4.1-5.4 8.6-3.5 13.1 5.4 28.4 3.6 33.4-4 2-2.8 2.3-6.5.8-9.6-3.7-8.2-18.4-14.4-31-16.3-47.2-7-92.7-31.1-91.4-40.5.2-2 .8-2.9 1-3 .8-.6 4.4.5 6.9 1.3 4 1.2 9 2.8 14.8 2.8 4 0 7.4-1.7 10.7-3.3 3-1.5 5.9-2.9 8.7-2.7 2 .2 3.9.8 5.7 1.7 5.1 2.5 10.9 3.2 16.5 2.1 10.2-1.6 10.5-10.2 10.3-14.4 3.2.4 7.2.4 10.2-2.1 2.5-2.1 3.8-5.5 3.8-10.1 0-11.1-21.9-19.2-43.3-25.6-1.3-.4-2.3-.7-2.8-.9l-5.4-1.8c-19.5-6.6-26.8-9.1-41.2-16.6l-2.2-1.1c-7.6-3.9-9.8-5.2-9.8-10V111c1.2.1 2.4.3 3.6.5 3.3.7 7.8 1.6 12.5.3 2.9-.9 5.6-2.5 7.7-4.7.6-.6 1.5-1.4 1.4-1.5 9.6 5.6 20.7 10.8 30.9.6 2.3-2.5 3.1-6.1 2.1-9.3-1-4.1-5.3-11.6-21.8-16.3l-1.2-.3c-23.2-6.5-38.4-12.3-45.4-17.2-22.6-15.8-28.9-41.8-29.8-51.7.1-.9.1-1.8.1-2.4v-.5c-.2-1.8-1.7-3.1-3.5-2.9-1.9 0-3.4 1.5-3.5 3.4 0 .6 0 1.4.1 2.4-.9 9.8-7.2 35.9-29.8 51.7-7 4.8-22.2 10.6-45.4 17.2l-1.2.3c-16.5 4.7-20.8 12.3-21.8 16.3-1 3.3-.2 6.8 2.1 9.3 10.2 10.2 21.3 5 30.4-.6.7.4 1.3.9 1.9 1.5 2.2 2.2 4.8 3.7 7.7 4.6 4.7 1.3 9.2.3 12.5-.3 1.2-.2 2.3-.5 3.4-.8.2.5.2 1 .2 1.5.1 4.8-2.1 6.1-9.8 10l-2.1 1.1c-14.5 7.5-21.8 10-41.3 16.6l-5.3 1.8c-.6.2-1.5.5-2.8.9-21.4 6.4-43.3 14.5-43.3 25.6 0 4.6 1.3 8 3.8 10.1 2.9 2.5 6.7 2.5 10.2 2.1-.2 4.2.1 12.8 10.3 14.4 8.4 1.3 12.8-.6 16.5-2.1 1.8-.9 3.7-1.5 5.7-1.7 2.8-.2 5.7 1.2 8.7 2.7 3.3 1.6 6.7 3.3 10.7 3.3 5.7 0 10.8-1.5 14.8-2.8 2.6-.8 6.1-1.9 6.9-1.3.2.2.7 1 1 3 1.4 9.5-44.2 33.5-91.4 40.5-12.6 1.9-27.3 8-31 16.3-1.5 3.1-1.2 6.8.8 9.6 5 7.6 20.3 9.5 33.4 4 4.5-1.9 5.7-.3 8.6 3.5 2.1 2.7 4.6 6.1 9 7.5 9 2.9 15.2-1.7 19.8-4.9 2.9-2.1 4.7-3.4 6.1-2.8 2.7 1.1 4.5 2.9 6.5 4.8 2.5 2.5 5.5 5.2 10.1 6.1 6.5 1.1 12.5-2 17.3-4.5 2.9-1.5 6.2-3.3 7.6-2.7.9.2 1.6 1 1.7 1.9.8 4.5-5.1 15.1-18.2 26.8-5.6 5-34.7 14.8-58.1 22.8-21.9 7.4-40.8 13.9-46.5 17.7-8.9 6-14.3 14.5-14.3 22.1.1 4 1.6 9.7 8.8 14.3 14.5 9.3 29.7 8.8 36.7 3.7l2.5-2c5-3.9 10.6-8.3 16.9-8.3 2.8 0 6 2.2 9.3 4.5 5 3.5 10.6 7.3 18.1 6.7 6.9-.6 13-5.3 18-9.1 2.4-1.9 6.4-4.8 7.6-4.7.2.1.6.3 1.1.6 3.5 2 11.8 6.7 20.7 4.3 2.5-.7 6.6-3.3 13.2-7.6 3-2 6-3.9 9.2-5.6 4.7-2 7.7-2.6 9.3-1.9 1.3.6 2.4 2.5 3.7 6.3 2.5 7 1.4 56.5.6 92.7-.4 17.3-.7 33.3-.7 44.2v.4c.1 1.9 1.7 3.3 3.5 3.2 1.9-.1 3.3-1.7 3.2-3.5 0-10.8.3-26.7.7-44 1.1-50.8 1.7-87.5-1-95-1.5-4.2-3.4-8.4-7.4-10.2-3.5-1.6-7.9-1-14.6 1.8-2.2.9-5.9 3.4-10.2 6.2-3.8 2.5-9.6 6.3-11.3 6.7-6.1 1.7-12.5-1.9-15.6-3.6-.6-.3-1.2-.7-1.8-.9-4.5-1.9-9.1 1.6-14.3 5.6-4.5 3.5-9.4 7.3-14.5 7.8s-9.2-2.5-13.7-5.5c-4-2.8-8.2-5.7-13.1-5.7-8.5 0-15.4 5.4-21 9.7l-2.4 1.9c-4.2 3.2-16.4 4.2-29-3.9-3.7-2.4-5.7-5.3-5.7-8.7-.1-5.3 4.4-11.7 11.3-16.4 5-3.4 25.2-10.3 44.9-16.9 32.5-11 54.2-18.7 60.4-24.1 11-9.8 22.1-23.6 20.3-33-.6-3.2-2.9-5.9-6-7-4.2-1.6-8.5.7-13.1 3.1-4.3 2.3-8.8 4.6-13 3.9-2.6-.5-4.4-2.2-6.6-4.3-2.5-2.6-5.4-4.7-8.7-6.2-4.8-1.9-8.9 1-12.5 3.6-4.1 3-8 5.9-13.8 4-2.3-.7-3.9-2.8-5.7-5.1-3.1-4-7.3-9.6-16.6-5.7-10.5 4.4-22.4 2.8-25.2-1.4-.7-.9-.8-2.1-.3-3.2 2.2-5 14-10.6 25.8-12.3 40.1-5.9 99.8-29.3 97.1-48.2-.6-3.8-1.9-6.3-4.1-7.7-3.5-2.2-7.7-.9-12.5.6-3.8 1.2-8.1 2.5-12.8 2.5-2.4 0-5-1.3-7.7-2.6-3.5-1.8-7.4-3.7-12.1-3.4-2.7.3-5.4 1-7.9 2.2-4 2-8.4 2.5-12.8 1.6-4.3-.7-4.9-3-4.6-8.3.1-2.2.2-4.2-1.4-5.7l-1.7-1.2-2.5.4c-2.2.4-5.6 1-7.1-.2-1.2-1-1.4-3.3-1.4-5 0-2.3 3.8-8.7 38.5-19.2 1.4-.4 2.5-.7 3-.9l5.3-1.8c19.3-6.5 27.2-9.3 42.2-17l2.1-1.1c7.6-3.9 13.6-6.9 13.5-16.1 0-1.1.1-4.4-2.4-6.5s-5.8-1.4-9.2-.7c-2.9.6-6.2 1.3-9.4.4-1.9-.6-3.6-1.7-5-3.2-2.1-1.9-5.2-4.7-9.2-2.3-10.2 6-16.5 7.9-22.7 1.7-.5-.9-.7-1.9-.3-2.9.4-1.7 2.9-7.5 17.2-11.6l1.2-.3c8.9-2.5 36-10.1 47.4-18.1C243.3 57.7 251.8 41 256 27.9c4.2 13.1 12.7 29.8 29.4 41.4 11.4 8 38.5 15.6 47.4 18.1l1.2.3c14.2 4.1 16.7 9.9 17.2 11.6.3 1 .2 2-.3 2.9-6.2 6.2-12.5 4.3-22.7-1.7-4-2.4-7.2.4-9.2 2.3-1.4 1.4-3.1 2.5-5 3.2-3.2.9-6.5.2-9.5-.4-3.4-.7-6.8-1.3-9.2.7-2.5 2-2.5 5.3-2.5 6.4-.1 9.2 5.9 12.2 13.4 16.1l2.1 1.1c14.9 7.8 22.9 10.5 42.2 17l5.4 1.8c.6.2 1.6.5 3 .9 34.7 10.4 38.5 16.9 38.5 19.2 0 1.8-.2 4-1.4 5-1.5 1.2-4.8.7-7.1.2l-3-.3-1.2 1.1c-1.6 1.4-1.5 3.5-1.4 5.7.3 5.3-.3 7.6-4.6 8.3-4.3.9-8.8.3-12.8-1.6-2.5-1.2-5.2-1.9-7.9-2.2-4.5-.3-8.6 1.7-12.1 3.4-2.7 1.4-5.3 2.6-7.7 2.6-4.7 0-9-1.3-12.8-2.5-4.8-1.5-9-2.8-12.5-.6-2.2 1.4-3.6 3.9-4.1 7.7-2.7 18.9 57 42.2 97.1 48.2 11.8 1.8 23.6 7.4 25.8 12.4.5 1 .4 2.3-.3 3.2-2.8 4.2-14.6 5.8-25.2 1.4-9.2-3.9-13.5 1.7-16.6 5.7-1.8 2.4-3.3 4.4-5.7 5.1-5.8 1.8-9.6-1-13.8-4-3.6-2.6-7.7-5.6-12.5-3.6-3.3 1.4-6.3 3.5-8.7 6.2-2.2 2.1-4 3.8-6.6 4.3-4.3.7-8.7-1.6-13-3.9-4.6-2.4-8.8-4.6-13.1-3.1-3.1 1-5.4 3.7-6 7-1.8 9.4 9.3 23.2 20.3 33 6.1 5.5 27.9 13.1 60.4 24.2 19.6 6.7 39.8 13.5 44.8 16.9 6.9 4.7 11.4 11.2 11.3 16.4 0 3.4-2 6.3-5.7 8.7-12.5 8.1-24.7 7.1-29 3.9l-2.4-1.8c-5.6-4.3-12.5-9.7-21-9.7-4.9 0-9.1 2.9-13.1 5.7-4.4 3.1-8.7 6-13.7 5.5-4.9-.4-10-4.3-14.5-7.8-5.2-4-9.8-7.5-14.3-5.6l-1.8.9c-3.1 1.7-9.4 5.3-15.6 3.7-1.6-.5-7.4-4.2-11.2-6.7-4.3-2.8-8.1-5.2-10.3-6.2-6.8-2.8-11.1-3.4-14.6-1.8-4 1.8-5.9 5.9-7.4 10.2-2.6 7.3-2.1 35.1-1.1 79.8.4 20.1.9 40.8.9 59.2 0 1.9 1.5 3.4 3.4 3.4h.2c1.9 0 3.3-1.6 3.3-3.5 0-18.5-.5-39.3-.9-59.4-.8-34.9-1.5-70.9.8-77.4 1.3-3.8 2.5-5.7 3.7-6.3 1.5-.7 4.6-.1 9.3 1.9 3.2 1.7 6.2 3.6 9.2 5.6 6.5 4.2 10.7 6.9 13.2 7.5 8.8 2.4 17.1-2.3 20.7-4.3.4-.3.8-.5 1-.6 1-.4 5.2 2.9 7.7 4.7 4.9 3.8 11.1 8.5 18 9.1 7.5.5 13.1-3.3 18.1-6.7 3.3-2.3 6.5-4.5 9.3-4.5 6.2 0 11.9 4.4 16.9 8.3l2.5 2c7 5.2 22.2 5.7 36.7-3.7 7.2-4.6 8.8-10.3 8.8-14.3 0-7.8-5.5-16.3-14.4-22.3z" fill="#1d1d1b"></path></svg>