<svg data-v-4c622a5e="" xmlns="http://www.w3.org/2000/svg" viewBox="0 0 512 512" id="incense"><path data-v-4c622a5e="" d="M198.5 246.2c-5.1-12.7-14.7-20.3-25.7-20.3s-20.6 7.6-25.8 20.6L83.2 450.3c-5.6 14.2-4 31.1 4.1 43.1 5.5 8.2 13.2 12.7 21.7 12.7h127.8c8.5 0 16.2-4.5 21.7-12.7 8.1-12 9.7-29 4.1-43l-64.1-204.2zm54 243.1c-4.1 6.1-9.7 9.5-15.7 9.5H109c-6 0-11.6-3.4-15.7-9.5-6.7-10-8.1-24.6-3.3-36.5 0-.1.1-.2.1-.2l63.7-203.7c4-9.9 11-15.8 19-15.8s15.1 5.9 19 15.5l64 204.2c4.7 11.9 3.4 26.5-3.3 36.5zm-90.2-315.5c.3 1.7 1.8 2.9 3.5 2.9h.7c2-.4 3.2-2.3 2.8-4.3-.3-1.6-.8-3.6-1.3-6-2.8-12-7.5-32.1-5.3-51.5 2.1-18.6 18.6-38.9 46.1-41.7 20-2 39.2 4.3 56.1 9.9 5.6 1.8 11 3.6 16.2 5 .5.1 1.1.2 1.6.1 2-.4 3.3-2.2 2.9-4.2 0-.1-1.9-11.2 3-28 4.5-15.4 13.5-21.2 31.3-20.2 20.5 1.2 43.5 11.5 52.3 23.6 1.2 1.6 3.4 2 5 .8s2-3.4.8-5c-10.1-13.8-34.9-25.3-57.7-26.6-21-1.3-33.1 6.6-38.6 25.4-2.6 8.4-3.8 17.1-3.7 25.8-3.5-1.1-7.1-2.3-10.8-3.5-17.6-5.8-37.6-12.4-59.1-10.2-31.3 3.1-50.1 26.6-52.5 48.1-2.3 20.6 2.6 41.4 5.5 53.9.4 2.3.9 4.2 1.2 5.7z"></path><path data-v-4c622a5e="" d="M424.3 23C412.1 7.5 390.5 6 389.6 6c-2-.1-3.7 1.4-3.8 3.4-.1 2 1.4 3.7 3.4 3.8.2 0 19.4 1.4 29.5 14.2 5.7 7.3 7.5 17.2 5.3 29.2-2 10.5-16.6 31.7-42 32.8-.8.1-1.6.1-2.4.1-26 0-43.4-18.9-43.6-19.1-1.3-1.5-3.5-1.7-5-.5-1.6 1.2-1.8 3.5-.6 5.1 3.8 5 9.4 14.9 8.3 20.3-.1.8-1.6 19.9-22.7 22.5-21.7 2.7-45.3-3.1-59-8.9l-3.3-1.4c-22.5-9.5-28.5-12.1-47-4.7-18.5 7.4-23.6 48.3-18.9 73.2.3 1.7 1.8 3 3.5 3 .2 0 .4 0 .7-.1 2-.4 3.2-2.3 2.9-4.2-4.6-24.3 1.3-59.9 14.5-65.2 15.7-6.3 19.1-4.8 41.5 4.6l3.2 1.4c14.5 6.1 39.7 12.3 62.7 9.4 21.6-2.7 28.4-20.3 28.9-28.7.5-3.3.2-6.6-1-9.7 11.2 7.1 24.3 10.6 37.6 10.1 27.4-1.2 45.9-23.3 48.7-38.7 2.7-14.1.4-25.9-6.7-34.9z"></path></svg>