<svg data-v-4c622a5e="" xmlns="http://www.w3.org/2000/svg" viewBox="0 0 512 512" id="ginger"><path data-v-4c622a5e="" d="M497.6 359.9c-12.4-14.3-66.7-65.9-75.3-73.8-2.5-2.2-5-4.2-7.7-6.1-5.1-3.7-7.2-5.4-7.6-9.5-.2-2.3.1-14.5.5-28.5 1.3-48.5 2.3-96.8-1.5-108.2-6.9-20.6-23-29.4-49-27.1-20.4 1.8-44 7.4-46.1 35.1-.9 11.7.1 30 1 44.7.4 6.7.8 14.1.9 18.3-11.3-5-46.2-27.5-58-37.2-14-11.6-22.1-46.5-24.8-57.9-1-4.6-1.7-10.2-2.4-16.1-2.5-20.6-5.6-46.4-27.5-62-22.8-16.3-45.7-15.2-61.2 3-8 9.5-11.1 27.8-9.2 54.9-1.3-1.5-2.9-3.2-4.7-5.2-3.2-3.4-6.8-7.5-10.7-11.8-9.9-11.1-21.1-23.8-30.7-31.9-15.7-13.3-41.8-18.5-62 1.8-20.4 20.2-18.7 49.3-6.8 66.3 11.6 16.6 40.6 39 42.8 40.5l.3.2c-.3.4-.6.7-.9 1-5.6 5.6-43.3 66.3-36.6 111.5 7.3 49.2 48.5 66 66.3 73.3 12 4.9 27.1 7.6 37.9 8.6-.8.2-1.6.4-2.5.6-13.9 3.1-53.4 26.1-48.7 51.1 5 27.2 28.3 43.4 62.2 43.4 40.1 0 81-23.8 97.1-36.4 10-7.9 15-11.6 18.1-13.4 1.1-.1 2.1-.5 2.9-1.3.9-.2 1.8-.3 2.7-.3 4.9 0 29.8 3.5 37.3 4.8-.9 1.3-2.1 2.4-3.4 3.3-6.6 5.1-31.2 32.6-31.8 57.8-.3 11.2 4 20.6 12.7 28 7.7 6.8 17.6 10.5 27.9 10.5 24.1 0 48.2-19.1 60.4-33 5.1-5.8 9.3-13 12.6-18.7 2.5-4.3 5.9-10.1 6.8-10.8.9.6 1.7 1.2 2.5 2 5.5 5 15.6 14.2 46.9 15.4 41.3 1.7 53-14 60.9-24.3l.7-.9c8.6-11.2 26.7-39.8 7.7-61.7zm-13.9 57l-.7.9c-7.8 10.1-17.5 22.7-54.5 21.3-28.5-1.1-37.3-9.1-42-13.4-2.1-1.9-3.9-3.6-6.5-3.9-5.7-.8-9.4 5.6-14.6 14.5-3.3 5.7-7.1 12.2-11.8 17.5-3.3 3.5-6.7 6.9-10.4 10-9.4-29.7-31.2-36.2-32.2-36.5h-.1c-2-.5-4.1.7-4.6 2.7-.6 2 .6 4.2 2.6 4.8.8.3 20.2 6.3 27.8 34.3-15.9 11.9-40.3 23.7-60.5 6.5-6.9-5.9-10.2-13.1-10-21.9.5-22.1 23.1-47.4 28.8-51.9 5.3-4.1 7.5-8.1 6.5-11.8-.7-2.8-3.2-4.8-6.7-5.3-3.5-.6-27.7-4.1-36.5-4.7 7-12.1 21.1-35.9 27.8-44.4 9.1-11.3 14.5-16 14.5-16.1 1.5-1.4 1.7-3.7.4-5.2-1.3-1.7-3.7-1.9-5.4-.6-.2.2-5.9 5.1-15.5 17.1-8.5 10.6-27.2 42.9-31.7 50.9-4.2 2.1-9.7 6.3-20.5 14.8-11.2 8.8-35.1 23.3-62 30.5-3.7-29.5-25.2-50.6-26.1-51.5-1.5-1.5-4-1.4-5.5.1s-1.4 4 .1 5.5c.2.2 20.9 20.6 23.9 47.8-7.5 1.6-15.1 2.4-22.8 2.5-30.3 0-50.3-13.5-54.6-37.1-3.3-17.8 28.7-39 42.8-42.1 4.6-1 19.3-4.8 18-11.8-.1-.8-1.1-4.6-6.7-3.7-4 .6-24.4-1.1-41.1-6.9 7.1-11.7 28.2-46.6 41-67.9 8.2-13.7 17.9-26.5 29-38 1.4-1.5 2.7-2.9 3.7-4.1 1.4-1.6 1.3-4-.3-5.4-1.6-1.4-4-1.3-5.4.3-1 1.2-2.3 2.5-3.6 4-11.5 11.9-21.5 25.1-30 39.3-13.2 22-35.4 58.6-41.7 69-15.2-6.2-40.3-17.9-52.5-45 1.5.2 2.9-.6 3.7-1.8.2-.3 17.3-28.4 28.1-41.4 6.7-8.1 14.2-15.6 22.3-22.4.1 0 .1-.1.2-.2 1.6-1.4 1.8-3.8.4-5.4s-3.8-1.8-5.4-.4c-8.5 7.1-16.4 14.9-23.5 23.5-10.4 12.6-25.8 37.5-28.4 41.7-1.6-4.8-2.8-9.6-3.5-14.6-6.4-43.4 31.4-101.8 34.4-104.9 1.7-1.7 3.8-4.2 3.5-7.4-.3-3.1-2.9-4.9-4.1-5.7-1.2-.8-11.4-8.7-21.8-18.1 7-1.6 23-6.4 32.2-19 0-.1.1-.1.1-.2 1.2-1.8.8-4.1-1-5.4-1.8-1.2-4.1-.8-5.4 1-9.9 13.5-30.4 16.6-30.6 16.6-.7.1-1.3.4-1.9.8-4.6-4.4-8.8-9.1-12.6-14.2-10-14.8-10.6-40 6.2-56.8s38.5-12.5 51.6-1.4c9.2 7.8 20.2 20.2 30 31.1 3.9 4.4 7.6 8.6 10.8 12 2.9 3.2 5.2 5.8 6.9 7.8 3.9 4.5 5.8 6.8 9 5.4 3.2-1.4 2.9-4.9 2.6-8.6-3.2-34.6 2.1-48.8 7-54.6 12.8-15.1 31.3-15.7 50.9-1.7 17.8 12.7 21.5 34.2 23.8 52.6-20-3.8-51.3-7.2-52.7-7.4h-.1c-2.1-.2-3.9 1.3-4.1 3.4-.2 2.1 1.3 4 3.4 4.2.3 0 35.1 3.9 54.5 7.8.6 4.7 1.2 9.1 2.1 13 4.8 21 12.9 50.3 27.4 62.1 2 1.7 8.7 6.5 17 12.3-9.4 13.1-25.3 31.8-25.4 32-1.4 1.6-1.2 4.1.4 5.4 1.6 1.4 4.1 1.2 5.4-.4.7-.8 16.3-19.3 25.9-32.7 17.3 11.6 38.4 24.4 43.5 23.2 1.3-.4 2.4-1.4 3-2.6.9-2.4.7-8-.3-24.6-.8-14.5-1.9-32.5-1-43.6 1.4-17.5 12.7-25.7 39.1-28 29.4-2.6 37.5 11.2 41 21.9 1.1 3.3 1.7 11.1 2 21.3-12-4-24.7-5.7-37.4-5-2.1.2-3.7 2.1-3.5 4.2v.2c.2 2.1 2.1 3.6 4.2 3.3 12.3-.6 24.6 1.2 36.2 5.3.2.1.4.1.6.2.3 23.6-.5 55.4-1.1 76.1-.5 17.5-.7 26.8-.5 29.4.7 7.8 5.6 11.3 10.8 15.1 1.7 1.3 3.7 2.6 5.7 4.4-5.8 3.5-6.9 4.8-11.5 10.7-4 5.2-10.7 13.8-26.9 31.7-1.4 1.6-1.3 4 .3 5.4s4 1.3 5.4-.3c16.3-18.1 23.2-26.8 27.3-32.1 4.4-5.7 4.7-6 11.3-10 9.9 9.3 30.8 29.2 47.5 45.8-3.1 2.8-8.8 8-15.1 13.8-9.6 8.8-27.3 30.3-28 31.2-1.4 1.7-1.1 4.1.6 5.5 1.7 1.4 4.1 1.1 5.4-.5.2-.2 18.1-22 27.2-30.4 6.5-5.9 12.3-11.2 15.4-14 7.5 7.5 13.8 13.9 17 17.7 15.4 17.3-.4 41.9-7.9 51.6z"></path><path data-v-4c622a5e="" d="M229 249.6c-2-.6-4.2.6-4.8 2.6-2 6.1-22.7 31.3-25.4 33.6-1 .7-1.6 1.9-1.6 3.2 0 2.1 1.8 3.8 3.9 3.8.8 0 1.5-.2 2.1-.7 3.3-2.2 25.7-29.7 28.3-37.5 0-.1.1-.2.1-.2.7-2-.5-4.2-2.6-4.8z"></path></svg>