<svg data-v-4c622a5e="" xmlns="http://www.w3.org/2000/svg" viewBox="0 0 512 512" id="leather"><path data-v-4c622a5e="" d="M447.9 129.8c1-1 1.3-2.6.8-3.9l-24.1-55.6c-.7-1.6-2.3-2.4-4-2.1-16.2 3.2-34.8 1.5-52.5-4.8-29.4-10.5-51.4-31.9-56-54.5-.3-1.6-1.8-2.8-3.4-2.8H203.5c-1.7 0-3.1 1.2-3.5 2.8-4.6 22.6-26.6 44-56 54.5-17.7 6.3-36.3 8-52.5 4.8-1.7-.3-3.3.5-4 2.1L63.4 126c-.6 1.3-.3 2.9.8 3.9.4.4 36.8 37.4 53.6 129.4 16.7 91.6-48.1 165.4-48.7 166.1-1.2 1.4-1.2 3.5.1 4.9l42.6 43.3c1 1.1 2.6 1.4 4 .8.4-.2.7-.4 1-.7 1.5-1.1 27-19.2 68.3-11.7 48.3 8.8 62.6 32.3 66.6 42 .5 1.3 1.8 2.2 3.3 2.2h2.2c1.4 0 2.7-.9 3.3-2.2 3.9-9.7 18.3-33.1 66.6-42 41.3-7.5 66.8 10.6 68.3 11.7.3.3.6.5 1 .7 1.3.6 2.9.3 3.9-.8l42.6-43.3c1.3-1.3 1.4-3.5.1-4.9-.6-.7-65.4-74.4-48.7-166.1 16.8-92.1 53.2-129.2 53.6-129.5zm-12.3 297.7l-38.3 38.9c-8.1-5.1-33.8-18.4-71.6-11.5-45.3 8.3-63.1 29.3-69.7 41.6-6.6-12.3-24.4-33.4-69.7-41.6-6.9-1.3-14-1.9-21-1.9-26.3 0-44.1 9.4-50.7 13.5l-38.3-38.9c11.4-14 63.8-84.3 48.3-169.6-15.4-84.2-46.2-122.9-53.9-131.4l22-50.9c16.7 2.8 35.6.8 53.5-5.6 30.6-11 53.8-33.1 60-57h99.6c6.2 24 29.4 46 59.9 57 17.9 6.4 36.8 8.4 53.5 5.6l22 50.9c-7.7 8.5-38.5 47.2-53.9 131.4-15.5 85.2 36.9 155.4 48.3 169.5zM276.1 54.9z"></path><path data-v-4c622a5e="" d="M256 34.8c-11.1 0-20.1 9.1-20.1 20.2s9.1 20.1 20.2 20.1 20.1-9 20.1-20.1c-.1-11.2-9.1-20.2-20.2-20.2z"></path></svg>