<svg data-v-4c622a5e="" xmlns="http://www.w3.org/2000/svg" viewBox="0 0 512 512" id="vanilla"><path data-v-4c622a5e="" d="M442 45c-1.1-1.7-1.9-3.5-2.3-5.5-1.9-8.1-12.9-14.8-14.1-15.6-1.1-.6-2.4-.5-3.3.4-3.5 3.3-7.3 7.9-5.4 11.3l.8 1.4c1.6 2.5 5.2 8.5 4.4 12.3-1.7 7.8-4.6 12.2-8.5 18.2l-2.1 3.2c-9 14-23.9 35-38.7 51.9-7.8 8.9-26.7 28.2-43.3 45.3-13.7 14.1-25.6 26.2-29.5 30.8-.9 1-1.7 2.1-2.6 3.2 3.2-6.5 6.5-13.4 9.6-20.8 4.9-11.6 8.8-19 12.6-26.1 7.1-13 13.1-26.6 17.9-40.7 2.4-6.7 4.6-12.9 6.6-18.6 8.5-23.8 14.1-39.4 14.4-51.6.5-21.6-10.6-35-18.4-37.2-8.1-2.2-11.8.1-12.4.6-.3.2-.6.6-.8.9-6.1 11.2-3.5 13.5-2.6 14.3.8.7 1.7 1.3 2.7 1.9 2.6 1.7 7 4.5 7.7 7.7 1.7 8.1-2 21.8-10.7 39.7-6.1 12.6-17 32.4-29.7 55.4-11.1 20.1-23.7 42.9-34.3 63.3-8.3 16-15.7 32.4-22.1 49.2-5.4 13.7-10.1 25.6-19.1 41.1-1.3 2.2-2.6 4.6-4 7l-1.5 2.8c-4.6 4.1-9.8 8.5-15.6 13.4-13.2 11.1-25.7 22.9-37.5 35.4-11.4 11.8-20.4 21.1-35.4 31-7.2 4.7-13.2 8.5-18.5 11.8-14.9 9.4-23.9 15-35.4 27.2-8.3 8.8 1.6 30 2.7 32.4.4.9 1.3 1.5 2.2 1.6 2.4.3 4.7.4 7.1.4 5.9 0 9.5-1 10.8-3.1.9-1.4.9-3.1 0-4.5-7.5-12.7-6.9-13.2-2.4-16.8 2.9-2.4 6.8-4.3 12.2-7 5.9-2.9 13.2-6.6 23-12.6 15.6-9.6 21.1-13.8 34.3-24 3.1-2.4 6.7-5.2 10.9-8.4 2.5-1.9 4.9-3.9 7.4-5.9-3.3 7.3-5.9 12.9-7.2 15.5-5.2 10.4-14.6 31.5-22.2 50.1-7.5 18.3-11.6 34.9-11.7 41.9-.1 5.6-1.7 8.6-6.4 12.3-1.2 1-7.9 3.4-13.4 5.1-.9.2-1.6.9-2 1.8-.3.8-.1 1.8.4 2.4.5 1 2.7 7.7 4.4 13.4.4 1.5 1.9 2.3 3.4 1.9 2.2-.6 22-6.3 28-13.2 7.6-8.7 9.7-17.8 11.2-24.5.4-2 .9-4 1.6-6l1.4-4c3.3-9.4 10.1-29 16.8-40 4.2-7 9.9-17.9 15.9-29.6 5.2-10.1 10.6-20.6 14.8-27.8l5.2-8.8c7.6-13 15.5-26.4 23.1-41.8l2.4-4.8c.1-.2.2-.4.2-.5 16.4-13.6 37.1-32.8 51.8-47.1 24.4-23.6 46.6-55.6 52.8-64.8 6.1-9 15.8-19.6 25.2-29.9 8-8.8 15.6-17 20.4-23.7 3.7-5.2 7.8-10.2 11.8-15.1 6.9-8.4 14.1-17.1 18.8-26.6 1.9-3.8 3.7-7.2 5.4-10.5 4.9-9.3 9.1-17.4 11.8-26.9 2.5-8.7 1.3-11.8-1-15.5zM243 241.9c6.4-16.6 13.7-32.9 21.9-48.7 10.6-20.3 23.1-43.1 34.2-63.2 12.7-23 23.7-43 29.9-55.7 9.3-19.2 13-33.8 11.1-43.2-1.1-5.5-6.8-9.1-10.1-11.3-.5-.3-1-.6-1.4-.9.6-2.5 1.6-4.9 2.8-7.2.9-.3 3.1-.7 7 .4 5.2 1.5 14.8 12.3 14.3 31.7-.3 11.3-5.8 26.6-14.1 49.8-2 5.7-4.3 11.9-6.6 18.7-4.7 13.8-10.5 27.1-17.5 39.9-3.8 7.2-7.8 14.8-12.8 26.5-6.7 15.9-13.8 29-20.6 41.8-1.9 3.5-3.8 7-5.6 10.6-4 4.8-8.4 9.3-13.2 13.4-7.1 6-13.1 11.9-19.9 18.6-4.6 4.5-9.8 9.6-16.1 15.5 7.4-13.3 11.8-24.2 16.7-36.7zm-28.4 107.3l-5.2 8.9c-4.2 7.3-9.7 17.9-15 28-5.7 11-11.6 22.5-15.7 29.2-7 11.5-14 31.4-17.3 41l-1.4 3.9c-.7 2.2-1.3 4.4-1.8 6.7-1.5 6.4-3.3 14.4-10 22-3.7 4.2-15.9 8.6-22.7 10.7-1.3-4.3-2.2-7.1-2.9-8.9 4.1-1.3 10.3-3.6 12.3-5.1 6.1-4.7 8.5-9.4 8.6-16.6.1-5 3.2-20.3 11.3-39.9 7.6-18.5 16.9-39.4 22-49.7 1.3-2.6 3.9-8.3 7.3-15.8l4.5-9.8c.1-.2.2-.4.2-.7 5.8-5 11.6-10.3 17.2-15.4 10.3-9.3 20-18.1 28.3-24.4l.3-.3c-6.5 13.2-13.4 24.9-20 36.2zM437.7 58.9c-2.5 8.9-6.6 16.8-11.4 25.8-1.7 3.3-3.6 6.8-5.5 10.6-4.5 8.9-11.1 17-18.1 25.6-4 4.9-8.2 10-12 15.4-4.5 6.4-12 14.6-19.9 23.2-9.5 10.4-19.4 21.2-25.7 30.6-6.2 9.1-28.1 40.7-52 63.9-18.1 17.5-45.2 42.4-61.9 55.1-8.5 6.4-18.3 15.3-28.7 24.7-11.2 10.2-22.9 20.7-34.1 29.3-4.2 3.2-7.8 6-11 8.4-13 10.1-18.4 14.2-33.8 23.7-9.7 5.9-16.8 9.5-22.6 12.4-5.8 2.9-9.8 4.9-13.2 7.7-8.1 6.6-6.4 11.2.4 22.8-3.4.5-6.8.5-10.2.2-3.5-7.9-7.1-20.4-3-24.7 10.9-11.7 19.2-16.9 34.3-26.3 5.3-3.3 11.3-7.1 18.6-11.9 15.5-10.2 25.2-20.2 36.4-31.8 11.7-12.4 24.1-24.1 37.1-35 22.3-18.6 34.9-31.1 45.1-41.1 6.8-6.7 12.6-12.5 19.6-18.3 12-10.1 21.3-23.3 28.7-33.8 3.6-5.1 6.7-9.5 9.5-12.7 3.9-4.4 16.2-17.1 29.3-30.5 16.7-17.1 35.6-36.5 43.5-45.5 15.1-17.1 30.1-38.4 39.2-52.6l2-3.1c4.1-6.3 7.4-11.3 9.3-20.1 1.3-6-3-13-5.1-16.4l-.4-.7c.7-1.3 1.5-2.4 2.5-3.5 3.4 2.3 8.8 6.7 9.7 10.8.6 2.5 1.6 4.9 3 7.1 1.5 2.2 2.4 3.7.4 10.7z"></path><path data-v-4c622a5e="" d="M442 45l.3-.2c-1.1-1.6-1.9-3.5-2.3-5.4-1-4.2-4.2-7.9-7.4-10.7-3.2-2.8-6.2-4.7-6.9-5-.5-.3-1-.4-1.6-.4-.8 0-1.5.3-2.1.8l.2.2-.2-.2c-1.4 1.3-2.9 2.9-4.1 4.6-1.1 1.6-1.9 3.4-1.9 5 0 .7.2 1.5.5 2.2l.8 1.4c.7 1.1 1.8 3 2.8 4.9.9 2 1.7 4.2 1.7 6 0 .4 0 .8-.1 1.2-1.7 7.7-4.5 12.1-8.5 18.1l-2.1 3.2c-9 14-23.9 35-38.7 51.9-7.8 8.9-26.7 28.2-43.3 45.3-13.7 14.1-25.6 26.2-29.6 30.8-.9 1-1.7 2.1-2.6 3.2l.2.2.3.1c3.3-6.5 6.5-13.4 9.6-20.8 4.9-11.6 8.8-19 12.6-26.1l-.3-.1.3.2c7.2-13 13.1-26.6 17.9-40.7l-.3-.1.3.1c2.4-6.7 4.6-12.9 6.6-18.6 8.5-23.8 14.1-39.4 14.4-51.7v-1.5c0-10.4-2.7-18.9-6.4-25-3.7-6.1-8.3-9.9-12.2-11-2.5-.7-4.6-1-6.4-1-3.8 0-5.7 1.2-6.2 1.6-.4.3-.7.6-.9 1-3.1 5.6-4 9.1-4 11.2 0 1.1.2 1.8.5 2.4.3.6.7.9.9 1.1.9.7 1.8 1.3 2.7 1.9l.2-.3-.2.3c1.3.8 3 1.9 4.5 3.2 1.5 1.3 2.7 2.8 3 4.2.3 1.2.4 2.6.4 4.2 0 8.2-3.7 20.3-11 35.3-6.1 12.6-17 32.4-29.7 55.4-11.1 20.1-23.7 42.9-34.3 63.3-8.3 16-15.7 32.4-22.1 49.2l.3.1-.3-.1c-5.4 13.7-10.1 25.5-19.1 41-1.3 2.2-2.6 4.6-4 7l-1.5 2.8.3.2-.2-.2c-4.6 4.1-9.8 8.5-15.6 13.4-13.2 11.1-25.7 22.9-37.5 35.5l.2.2-.2-.2c-11.4 11.8-20.4 21.1-35.3 31-7.2 4.7-13.2 8.5-18.5 11.8-14.9 9.4-24 15.1-35.5 27.3-2.5 2.6-3.4 6.3-3.4 10.3 0 9.6 5.2 20.8 6 22.5.5 1 1.4 1.6 2.5 1.7v-.3.3c2.4.3 4.7.4 7.1.4 2.9 0 5.3-.3 7.2-.8 1.8-.5 3.2-1.3 3.9-2.5.5-.7.7-1.6.7-2.4 0-.8-.2-1.7-.7-2.4l-.3.2.3-.2c-2-3.4-3.4-6-4.4-7.9-.9-1.9-1.3-3.3-1.3-4.3 0-.8.3-1.5.8-2.1.5-.7 1.3-1.3 2.4-2.2 2.9-2.4 6.8-4.3 12.1-7 5.9-2.9 13.2-6.6 23-12.6 15.6-9.6 21.1-13.8 34.3-24 3.1-2.4 6.7-5.2 10.9-8.4 2.5-1.9 4.9-3.9 7.4-5.9l-.2-.2-.3-.1c-3.3 7.3-5.9 12.9-7.2 15.5-5.2 10.4-14.6 31.5-22.2 50.1-7.5 18.3-11.6 34.9-11.7 42-.1 2.8-.5 4.9-1.4 6.8-1 1.9-2.5 3.5-4.9 5.3-.3.2-.9.5-1.8.9-2.6 1.2-7.4 2.9-11.6 4.1l.1.3-.1-.3c-1 .2-1.8 1-2.2 2l.3.1-.3-.1c-.1.3-.2.6-.2 1 0 .6.2 1.3.6 1.8l.2-.2-.3.1c.1.2.4.8.7 1.7.9 2.6 2.4 7.4 3.7 11.6l.3-.1-.3.1c.4 1.3 1.6 2.2 2.9 2.2.3 0 .6 0 .8-.1l-.1-.3.1.3c1.1-.3 6.6-1.9 12.6-4.3s12.5-5.5 15.6-9c7.7-8.7 9.8-17.9 11.3-24.6.4-2 .9-4 1.6-6l-.3-.1.3.1 1.4-4c3.3-9.4 10.1-28.9 16.8-39.9 4.2-7 9.9-18 15.9-29.6 5.2-10.1 10.6-20.6 14.8-27.8l5.2-8.8c7.6-13 15.5-26.4 23.1-41.8l2.4-4.8-.3-.1.3.2c.1-.2.2-.4.2-.6l-.3-.1.2.2c16.4-13.6 37.1-32.8 51.8-47.1 24.4-23.6 46.6-55.6 52.8-64.8 6.1-9 15.8-19.6 25.2-29.9 8-8.8 15.6-17.1 20.4-23.8 3.7-5.2 7.8-10.2 11.8-15 6.9-8.4 14.1-17.2 18.8-26.7 1.9-3.8 3.7-7.2 5.4-10.5 4.9-9.3 9.1-17.4 11.8-26.9.9-3.3 1.3-5.9 1.3-7.9 0-3.3-1-5.4-2.4-7.7l.5-.3-.3.2c1.4 2.2 2.3 4.2 2.3 7.4 0 2-.4 4.4-1.3 7.8-2.7 9.4-6.9 17.5-11.8 26.8-1.7 3.3-3.5 6.8-5.4 10.5-4.7 9.4-11.8 18.1-18.8 26.6-4 4.9-8.1 9.9-11.8 15.1-4.7 6.7-12.3 14.9-20.3 23.7-9.4 10.3-19.1 20.9-25.2 29.9-6.2 9.2-28.4 41.2-52.8 64.7-14.8 14.3-35.5 33.5-51.8 47l-.1.2c0 .2-.1.3-.2.5l-2.4 4.8c-7.6 15.4-15.5 28.8-23.1 41.8l-5.2 8.8c-4.2 7.2-9.6 17.7-14.8 27.8-6 11.6-11.7 22.6-15.9 29.6-6.7 11.1-13.6 30.6-16.8 40l-1.4 4c-.7 2-1.2 4-1.6 6l.3.1-.3-.1c-1.5 6.7-3.6 15.7-11.2 24.3-2.9 3.4-9.4 6.5-15.3 8.9-6 2.4-11.5 3.9-12.6 4.2-.2.1-.4.1-.7.1-1.1 0-2-.7-2.3-1.8-.8-2.8-1.8-5.9-2.6-8.4-.4-1.3-.8-2.4-1.1-3.2-.3-.9-.5-1.5-.7-1.8v-.1c-.3-.4-.5-.9-.5-1.4 0-.3 0-.5.1-.7.3-.8.9-1.4 1.7-1.6 2.8-.9 5.8-1.9 8.3-2.8 1.3-.5 2.4-.9 3.3-1.3.9-.4 1.6-.7 1.9-1 2.4-1.9 4-3.6 5.1-5.5 1-2 1.5-4.2 1.5-7 .1-6.9 4.2-23.6 11.7-41.8 7.7-18.6 17-39.7 22.2-50.1 1.3-2.6 3.8-8.2 7.2-15.5.1-.1 0-.3-.1-.4-.1-.1-.3-.1-.4 0-2.5 2-4.9 4-7.4 5.9-4.2 3.3-7.8 6-10.9 8.4-13.2 10.2-18.6 14.4-34.3 24-9.8 6-17.1 9.7-23 12.6-5.4 2.7-9.2 4.6-12.2 7-1 .8-1.9 1.5-2.5 2.3-.6.7-1 1.5-.9 2.5 0 1.2.4 2.6 1.4 4.5.9 2 2.4 4.5 4.4 7.9.4.6.6 1.4.6 2.1 0 .7-.2 1.5-.6 2.1-.6 1-1.8 1.7-3.5 2.2-1.8.5-4.1.8-7 .8-2.4 0-4.7-.1-7.1-.4-.9-.1-1.6-.6-2-1.4-.8-1.7-6-12.8-6-22.2 0-3.8.9-7.4 3.2-9.8 11.4-12.2 20.4-17.8 35.3-27.2 5.2-3.3 11.3-7.1 18.5-11.8 15-9.9 24-19.3 35.5-31 11.8-12.5 24.3-24.3 37.5-35.4 5.8-4.9 11-9.3 15.6-13.4l.1-.1 1.5-2.8-.3-.2.3.2c1.4-2.4 2.7-4.8 4-7 9-15.5 13.7-27.4 19.2-41.1 6.4-16.8 13.8-33.2 22.1-49.2 10.6-20.4 23.2-43.2 34.3-63.3 12.7-23 23.6-42.8 29.7-55.4 7.3-15.1 11.1-27.2 11.1-35.6 0-1.6-.1-3-.4-4.3-.4-1.7-1.7-3.3-3.2-4.6-1.5-1.3-3.3-2.5-4.6-3.3-.9-.6-1.8-1.2-2.6-1.9l-.2.2.2-.2c-.2-.2-.5-.5-.8-.9-.2-.5-.4-1.1-.4-2.1 0-2 .8-5.3 3.9-10.9.2-.3.4-.6.7-.8.4-.3 2.2-1.5 5.8-1.5 1.7 0 3.7.3 6.2 1 3.7 1 8.2 4.7 11.8 10.7 3.6 6 6.3 14.4 6.3 24.7v1.5c-.3 12.1-5.9 27.8-14.4 51.5-2 5.7-4.3 11.9-6.6 18.6-4.8 14-10.7 27.6-17.9 40.6-3.8 7.1-7.7 14.6-12.6 26.1-3.2 7.5-6.4 14.3-9.6 20.8-.1.1 0 .3.1.4.1.1.3.1.4-.1.9-1.1 1.8-2.2 2.6-3.2l-.2-.2.2.2c4-4.5 15.8-16.7 29.5-30.7 16.6-17.1 35.5-36.4 43.3-45.3C387.8 106 402.7 85 411.7 71l2.1-3.2c4-6.1 6.9-10.5 8.6-18.3.1-.4.1-.8.1-1.3 0-2-.8-4.2-1.7-6.2-1-2-2.1-3.9-2.8-5l-.3.2.3-.2-.8-1.4-.3.2.3-.2c-.3-.6-.5-1.2-.5-1.9 0-1.4.7-3.1 1.8-4.6 1.1-1.6 2.6-3.1 4-4.5.5-.4 1.1-.7 1.7-.7.4 0 .9.1 1.2.3.6.4 3.7 2.2 6.8 5 3.1 2.8 6.3 6.4 7.2 10.4.5 2 1.3 3.9 2.4 5.6l.2-.2-.3.2.3-.2zM243 241.9l.3.1c6.3-16.6 13.6-32.9 21.8-48.6 10.6-20.3 23.1-43.1 34.2-63.2 12.7-23.1 23.7-43 29.9-55.7 7.7-16 11.6-28.7 11.6-38.1 0-1.9-.2-3.7-.5-5.3-1.2-5.7-6.9-9.3-10.2-11.5-.5-.3-1-.6-1.4-.9l-.2.3.3.1c.6-2.5 1.6-4.9 2.8-7.1l-.3-.2.1.3c.4-.1 1.2-.3 2.2-.3 1.1 0 2.7.2 4.6.7 2.4.7 6 3.6 8.9 8.6 2.9 5 5.2 12.2 5.2 21.4v1.4c-.3 11.2-5.7 26.5-14.1 49.7-2 5.7-4.3 11.9-6.6 18.7-4.7 13.8-10.5 27.1-17.5 39.8-3.8 7.3-7.8 14.8-12.8 26.6-6.7 15.8-13.8 29-20.6 41.8-1.9 3.5-3.8 7-5.7 10.6l.3.1-.2-.2c-4 4.8-8.4 9.3-13.1 13.3-7.1 6-13.1 11.9-19.9 18.7-4.6 4.5-9.7 9.6-16.1 15.5l.2.2.3.2c7.5-13.5 11.8-24.5 16.7-36.9l-.2-.1-.3-.1c-4.9 12.5-9.3 23.4-16.7 36.9-.1.1 0 .3.1.4.1.1.3.1.4 0 6.3-5.9 11.5-11 16.1-15.5 6.9-6.8 12.8-12.6 19.9-18.6 4.8-4.1 9.2-8.6 13.2-13.4v-.1c1.9-3.6 3.8-7.1 5.6-10.6 6.9-12.8 13.9-26 20.7-41.8 5-11.8 8.9-19.3 12.8-26.5l-.3-.1.3.2c7-12.8 12.9-26.1 17.5-40l-.3-.1.3.1c2.4-6.7 4.6-12.9 6.6-18.7 8.3-23.2 13.8-38.6 14.1-49.9v-1.4c0-9.3-2.3-16.6-5.3-21.7-3-5.1-6.6-8.1-9.3-8.9-2-.6-3.6-.8-4.8-.8-1.2 0-2 .2-2.4.3l-.2.2c-1.2 2.3-2.2 4.7-2.8 7.3 0 .1 0 .3.1.3.4.3.9.6 1.4.9 3.4 2.1 8.9 5.7 10 11.1.3 1.6.5 3.3.5 5.2 0 9.2-3.8 21.9-11.6 37.8-6.2 12.7-17.1 32.6-29.9 55.7-11.1 20.1-23.7 42.9-34.2 63.2-8.2 15.8-15.5 32.1-21.9 48.7l.4-.1-.3-.1.3.1zm-28.4 107.3l-.3-.2-5.2 8.9c-4.3 7.3-9.7 17.9-15 28.1-5.7 11-11.6 22.5-15.7 29.2-7 11.6-14 31.5-17.3 41.1l-1.4 3.9c-.7 2.2-1.3 4.4-1.8 6.7l.3.1-.3-.1c-1.5 6.4-3.3 14.4-9.9 21.9-1.8 2-5.7 4.2-10.1 6.1-4.4 1.9-9.1 3.5-12.5 4.6l.1.3.3-.1c-1.3-4.3-2.2-7.1-2.9-8.9l-.3.1.1.3c2-.7 4.6-1.6 6.9-2.5 2.3-.9 4.4-1.9 5.4-2.7 3.1-2.4 5.2-4.7 6.6-7.4 1.4-2.7 2.1-5.8 2.1-9.4 0-2.5.9-7.6 2.7-14.4 1.8-6.9 4.6-15.6 8.6-25.4 7.6-18.5 16.9-39.4 22-49.7 1.3-2.7 3.9-8.3 7.3-15.8l4.5-9.8c.1-.2.2-.5.2-.7l-.3-.1.2.2c5.8-5 11.6-10.3 17.3-15.4 10.3-9.3 20-18.1 28.3-24.4l.3-.3-.2-.2-.3-.1c-6.6 13.1-13.4 24.8-20.1 36.1h.4l.3.2c6.7-11.3 13.6-23 20.1-36.1.1-.1 0-.3-.1-.4-.1-.1-.3-.1-.4 0l-.3.3c-8.3 6.3-18.1 15.1-28.4 24.4-5.7 5.1-11.4 10.4-17.2 15.4l-.1.2c0 .2-.1.4-.2.6l.3.1-.3-.1-4.5 9.8c-3.4 7.5-6 13.2-7.3 15.8-5.1 10.3-14.4 31.2-22 49.7-4 9.8-6.8 18.5-8.6 25.4-1.8 6.9-2.6 12-2.7 14.6-.1 3.6-.7 6.5-2.1 9.2-1.4 2.6-3.4 4.9-6.4 7.2-.9.7-3 1.7-5.3 2.6-2.3.9-4.9 1.8-6.9 2.5l-.2.2v.2c.6 1.8 1.5 4.6 2.8 8.9l.2.2h.2c3.4-1.1 8.2-2.7 12.6-4.6 4.4-1.9 8.4-4.1 10.3-6.2 6.8-7.6 8.6-15.7 10.1-22.1.5-2.2 1.1-4.5 1.8-6.6l-.3-.1.3.1 1.4-3.9c3.3-9.6 10.3-29.5 17.3-40.9 4.1-6.8 10-18.2 15.7-29.3 5.3-10.2 10.7-20.7 14.9-28l5.2-8.9-.2-.4zM437.7 58.9l-.3-.1c-2.5 8.9-6.6 16.7-11.4 25.8-1.7 3.3-3.6 6.8-5.5 10.6-4.4 8.9-11 16.9-18.1 25.5-4 4.9-8.2 10-12 15.4-4.5 6.4-12 14.5-19.9 23.2-9.5 10.4-19.4 21.2-25.8 30.6-6.1 9.1-28.1 40.7-52 63.9-18.1 17.5-45.2 42.4-61.9 55-8.5 6.4-18.3 15.3-28.7 24.7-11.2 10.2-22.8 20.7-34.1 29.3-4.3 3.2-7.8 6-11 8.4-13 10.1-18.4 14.2-33.7 23.6-9.7 5.9-16.8 9.5-22.6 12.4-5.7 2.8-9.7 4.8-13.2 7.7-1.9 1.5-3.3 3-4.2 4.4-.9 1.5-1.3 3-1.3 4.6 0 3.7 2.2 7.9 5.8 14.2l.3-.2v-.3c-2 .3-4 .4-6 .4-1.4 0-2.8-.1-4.2-.2v.3l.3-.1c-2.4-5.3-4.8-12.9-4.8-18.4 0-2.6.5-4.7 1.7-6 10.9-11.7 19.2-16.8 34.2-26.3 5.3-3.3 11.3-7.1 18.6-11.9 15.5-10.2 25.2-20.2 36.4-31.8 11.7-12.4 24-24 37.1-35 22.3-18.6 34.9-31.1 45.1-41.2 6.8-6.7 12.6-12.5 19.6-18.3 12-10.1 21.3-23.3 28.8-33.9 3.6-5.1 6.7-9.5 9.5-12.7 3.8-4.4 16.2-17.1 29.3-30.5 16.7-17.1 35.6-36.5 43.5-45.5 15.1-17.2 30.2-38.4 39.3-52.6l2-3.1-.3-.2.3.2c4.1-6.3 7.4-11.4 9.4-20.2.2-.8.3-1.6.3-2.4 0-5.5-3.6-11.2-5.4-14.2l-.4-.7-.3.2.3.1c.7-1.2 1.5-2.4 2.5-3.4l-.2-.2-.2.3c1.7 1.2 3.9 2.8 5.7 4.7 1.9 1.9 3.4 4 3.8 5.9.6 2.6 1.6 5 3 7.2l.3-.2-.3.2c.9 1.5 1.6 2.5 1.6 4.6 0 1.4-.3 3.3-1.1 6.1l.2.1.3.1c.8-2.8 1.1-4.8 1.1-6.3 0-2.2-.7-3.4-1.7-4.9-1.4-2.1-2.4-4.5-3-7-.5-2.2-2.1-4.3-4-6.2-1.9-1.9-4.1-3.6-5.8-4.8-.1-.1-.3-.1-.4 0-1 1.1-1.9 2.3-2.6 3.5-.1.1 0 .2 0 .3l.4.7c1.8 3 5.3 8.7 5.3 13.9 0 .8-.1 1.5-.2 2.3-1.9 8.7-5.1 13.7-9.3 20l-2 3.1c-9.1 14.2-24.2 35.4-39.2 52.6-7.9 9-26.8 28.4-43.5 45.5-13.1 13.4-25.5 26.1-29.3 30.5-2.8 3.2-5.9 7.6-9.5 12.7-7.4 10.6-16.7 23.7-28.7 33.8-7 5.8-12.8 11.6-19.6 18.4-10.1 10-22.8 22.5-45 41.1-13 11-25.4 22.6-37.1 35l.2.2-.2-.2c-11.2 11.6-20.8 21.5-36.3 31.7-7.2 4.7-13.3 8.6-18.6 11.9-15 9.4-23.4 14.7-34.3 26.4-1.4 1.5-1.9 3.7-1.9 6.4 0 5.7 2.4 13.3 4.8 18.7 0 .1.1.2.3.2 1.4.1 2.8.2 4.2.2 2 0 4-.1 6-.4.1 0 .2-.1.2-.2v-.3c-3.6-6.2-5.8-10.4-5.8-13.8 0-1.5.4-2.9 1.2-4.2.9-1.4 2.2-2.8 4-4.3 3.4-2.8 7.4-4.8 13.1-7.6 5.8-2.9 12.9-6.5 22.6-12.4 15.4-9.4 20.8-13.6 33.8-23.7 3.2-2.4 6.8-5.2 11-8.4 11.3-8.6 22.9-19.2 34.1-29.3 10.4-9.4 20.2-18.3 28.7-24.7 16.8-12.7 43.9-37.6 62-55.1 24-23.2 45.9-54.8 52.1-64 6.3-9.3 16.2-20.1 25.7-30.5 7.9-8.6 15.4-16.8 20-23.2 3.7-5.4 7.9-10.4 12-15.4 7-8.6 13.7-16.7 18.1-25.6 1.9-3.8 3.7-7.3 5.5-10.6 4.7-9.1 8.9-16.9 11.4-25.9l-.1-.2z"></path></svg>