<svg data-v-4c622a5e="" xmlns="http://www.w3.org/2000/svg" viewBox="0 0 512 512" id="milk"><path data-v-4c622a5e="" d="M370 329.6c-1.5-85.1-34.5-152.2-66.3-217.1C286.3 77 269.9 43.5 259 8.2c-.5-1.4-1.9-2.4-3.4-2.2-8.4 1.1-107.8 190.6-113.5 323.5-2.5 57 15.5 111.2 47.9 145.2 19.6 20.5 42.5 31.3 66 31.3 22.7 0 44.7-10.1 63.6-29.4 32.7-33.3 51.5-88.2 50.4-147zm-54.7 142.7c-17.7 18.1-38.2 27.6-59.2 27.6-21.8 0-43.2-10.2-61.6-29.5-31.4-32.8-48.6-85.3-46.3-140.7C153.6 205 237.5 45.2 255.1 15.9c11 33.6 26.6 65.5 43.2 99.3 31.5 64.3 64.2 130.8 65.7 214.5 1 57.2-17.2 110.5-48.7 142.6z" fill="#1d1d1b"></path></svg>