<svg data-v-4c622a5e="" xmlns="http://www.w3.org/2000/svg" viewBox="0 0 512 512" id="citrus"><path data-v-4c622a5e="" d="M255.1 506c-18.9 0-37.6-2.2-56-6.5C66 468.4-16.8 333.9 14.6 199.6 29.4 135.1 69.3 79.1 125.5 44 181.9 8.6 248.4-2.5 312.9 12.6c133.1 31 215.9 165.6 184.5 299.8C470.5 427.8 367.9 506 255.1 506zm1.4-491.7c-44.8.1-88.7 12.8-126.6 36.7C75.6 85 37 139.1 22.7 201.5-7.6 331.3 72.4 461.4 201 491.4s258-51.1 288.3-180.9C519.6 180.7 439.6 50.7 311 20.6c-17.9-4.2-36.1-6.3-54.5-6.3zm236.9 297.2zm-215 146.7c-6 .1-11.9-.6-17.7-2.1-8.8-2.5-13.6-7.8-16.2-13.4-4.9 9.5-12.3 14.8-21.5 14.8-14 0-34.6-6.6-51.2-16.3-21.4-12.6-30.2-20.3-38.8-30.1-8.4-9.6-16.1-25.3-14.3-36.4-3.8.6-7.7.5-11.5-.2-11.7-2-22.5-9.6-26.8-15.6-9-12.8-13.8-28.5-20.2-54.7-6.9-28.6-3.7-48.1.4-63.4 2-7.4 6.7-11.2 12.3-12.9-8.6-6.2-9.3-14.8-8.5-23 1-9.8 4.9-30.3 19.8-57.4 10.9-19.9 22.9-29.9 32.4-38 1.7-1.4 3.3-2.8 4.9-4.2 3.5-3.1 8.2-4.6 12.8-4.1 3.4.4 6.8 1.5 9.8 3.3-2.5-8.2-.8-14.7 5.1-20.2 11.6-11 27.3-19.9 49.3-28 21.3-7.9 36.9-7.8 49.5-7.5h6.4c7.1.1 12.3 1.9 16.2 5.7 1.7 1.7 3.1 3.8 4.1 6 2.6-4.4 6.9-6.5 13-6.4 15.8.4 36.5 6.1 58.3 16 22.7 10.3 33.6 21 43.2 30.4l1.8 1.8c7.4 7.2 8.6 14.3 8.5 19-.1 1.7-.3 3.4-.8 5.1 6.1-1.8 11.4-.5 16.5 4.9 10.8 11.5 21.4 30.2 29.7 52.7 9 24.2 10.8 30.3 10.9 45.2.1 7.4-2.1 13.4-6.4 17.8-2.2 2.2-4.8 3.9-7.7 5 6.3 3.7 10.7 10 11.9 17.2 4.8 24.9-5 55.1-11.3 71-12.3 30.9-29 50.6-47.1 55.4-7.9 2.1-13.9 2.4-18.9 1.2.9 2.6.8 4.9.4 8.6l-.1 1.2c-1.8 17.8-32.3 38-59.7 45.8-16.4 4.4-29.1 5.8-38.5 5.8zm-28.6-32.4c.1 11.1 2.5 19.2 13.3 22.3 4.4 1.3 21.1 4.7 51.5-3.9 26.3-7.5 52.4-26.2 53.7-38.6l.1-1.2c.6-5.4.6-5.4-9.5-18.5l-2.5-3.3c-2.8-3.6-6.7-8.6-11.3-14.3-10.1-12.1-23.5-28.2-35.4-42.6-15.4-18.1-29.4-33.9-33.4-37-3-2.4-7.1-2.9-10.6-1.2-3.2 1.4-5.4 4.5-5.7 8-.2 3.4-1.2 16.6-2.7 33.8-.8 9.8-1.6 20.4-2.5 31-1.9 22.6-3.6 44-4 54.6-.1 3.6-.4 7.3-1 10.9zm-118.1-56.1c-1.6 1.4-2.8 2.3-3.3 2.8-4.6 4.7 1 21.6 10.9 33 6.8 7.7 14.2 15.2 36.8 28.5 15.5 9.1 34.3 15.2 47 15.2 9.2 0 15.8-8.9 18.4-23.9 0-4.9 2.6-36.1 6.2-79.7.5-5.9 1-11.7 1.4-17.2 1.3-16.4 2.2-30.1 2-35.5-.1-3.6-1.7-4.7-2.9-5.2-3.9-1.6-11.2.3-15.3 4.1-3.3 3-20 15.7-40.5 31.3-20.3 16.4-43.9 34.8-59.3 45.6-.4.4-.9.7-1.4 1zm217.9-9.1c8.7 10.4 15.4 18.3 17 20.1 6.5 6.8 11.4 10.7 26.3 6.7 15.5-4.1 30.2-22 41.5-50.4 6-15 15.3-43.5 10.9-66.3-2.2-11.5-12.1-16.5-32.9-16.7-36.5.6-71.5 1.2-93.5 1.2-4.1.1-8.1.3-11.9.5-9 .5-16.6 5.2-20 12.4-2.9 6.2-2.1 13.2 2.3 19.1 2.6 3.5 14.8 18.4 28.8 35.4 11.1 13.2 22.6 27.1 31.5 38zM87.3 354c2.7 3.9 11.4 10.5 21.4 12.2 6.3 1.2 12.8 0 18.3-3.3 8.3-6.7 26.9-20.9 52.2-40.1l8.9-6.8c17.7-14.3 32.5-26.8 36.3-30.8 4.4-4.6 6.4-8.5 6.1-12.1-.3-4.2-3.6-8.9-9.9-13.9-6.6-5.2-61.8-13.1-91.4-17.3-15.4-2.2-27.6-3.9-32.2-5-17.8-4.1-25.9-2.3-28.2 5.9-4 15-6.8 32.6-.4 59.3 6.1 25.2 10.7 40.2 18.9 51.9zm157.6-75.2c2.3 0 4.5.4 6.6 1.3 2 .8 3.7 2.1 5.1 3.8 1.6-1.7 3.5-3.1 5.7-4 4.7-2.3 10.2-2.3 15-.3-.7-5.1 0-10.2 2.2-14.9 2.2-4.5 5.5-8.4 9.6-11.3-7-2.2-11.7-6.2-13.2-11.6-.9-3.1-.7-6.5.5-9.5-3.2.5-6.5.1-9.5-1.1-2-.8-3.8-2.2-5.1-3.9-1.6 1.7-3.6 3.1-5.7 4.1-5.7 2.7-12.3 2.3-17.6-1.1.3 3.5-.4 7-1.8 10.2-2.5 5.2-6.9 9.3-12.3 11.2.5.3.9.6 1.3.9 8.3 6.6 12.6 13.1 13.1 19.9.2 2.5-.2 5-1 7.4 2.3-.7 4.7-1.1 7.1-1.1zm123.3-120.2c-7 6.2-15.2 13.6-23.7 21.2-20.1 18.1-40.9 36.8-52.7 46.3-6 4.8-9 9.8-7.9 13.4s6.4 6.3 13.8 7.1c2.2.2 10.2.3 21.1.3 32.6-1.2 75.2-1.2 92.5-1.2h1.3c9.8-.2 16.7-.3 18.5-.3 5.2 0 9.6-1.6 12.3-4.4s4-6.7 4-11.9c-.1-13.1-1.2-17.9-10.3-42.4-10.7-28.9-22.1-43.6-27.9-49.8-3.3-3.5-6.4-6.8-25 8.1-1.5 1.2-3.3 2.7-5.4 4.5l-10.6 9.1zm-235.6-49.3c-2 0-4 .8-5.5 2.1-1.6 1.4-3.3 2.8-5.1 4.3-9.5 8-20.3 17.1-30.5 35.6-10.3 18.8-17.2 38.6-18.8 54.2-.8 7.3-1.7 16.4 18.8 20.7 22.6 4.7 114.5 19 126 18.5 5-.3 9.4-3.3 11.5-7.7 2.2-4.8 1-10.7-3.4-16.6-2.8-3.7-15.6-20.9-29.5-39.9-17.1-23.2-36.2-49.1-41.1-55.5-5.4-7-14.3-15-21.4-15.7h-1zm22.4-19c-2.8 2.6-8.6 8.2 6.6 28 3.5 4.6 9.5 12.7 16.8 22.6 19.9 26.8 56.9 76.7 63.6 81.9 3 2.4 7.1 2.9 10.6 1.2 3.3-1.4 5.5-4.5 5.7-8.1.2-4.3 2-27.4 4.1-54.1 2.9-37.1 6.5-83.4 6.5-88.2 0-6.2-1.4-10.7-4-13.3-2.3-2.2-5.8-3.4-10.3-3.3H248c-12.5-.1-26.6-.3-46.5 7-20.9 7.8-35.7 16.1-46.5 26.3zm131.6-28c-4.1 0-7.1 1.5-8 23.3-.4 11.5-2.9 36.9-5.6 63.8-3 29.9-6 60.9-5.8 69.1.1 3.6 1.7 4.7 2.9 5.2 3.9 1.6 11.2-.3 15.3-4.1 3.1-2.9 18.9-16.5 37.1-32.3 13.3-11.5 28.2-24.4 40.2-34.9 4-3.5 7.6-6.7 10.6-9.2 6.8-6 11.6-10.2 12.8-11.4 3-2.9 4.8-6.7 5.1-10.8.2-4.4-1.8-8.7-6-12.7l-1.8-1.8c-9.5-9.4-19.3-19.1-40.7-28.8-28.1-12.8-46.6-15-55.1-15.3l-1-.1zM68.7 205.2z" fill="#1d1d1b"></path></svg>