<svg data-v-4c622a5e="" xmlns="http://www.w3.org/2000/svg" viewBox="0 0 512 512" id="mimosa"><path data-v-4c622a5e="" d="M392.1 197.5c-14.5 0-27.5 8.8-32.9 22.1-2.7-.7-5.5-1-8.2-.9-6.4.4-12.6 2.5-18 5.9-.6-.8-1.2-1.5-1.8-2.2 9.7-6.6 15.6-17.6 15.6-29.4 0-22.5-20.6-35.1-35.5-35.6-4.2-.1-5.8 0-7.4.4-1.1-2-2.3-3.8-3.7-5.6 12.6-9.3 15.3-27.2 6-39.8a28.58 28.58 0 0 0-18.9-11.3C285.7 90.6 276 76.8 260.4 76c19-5.1 30.2-24.7 25.1-43.6-5.1-19-24.7-30.2-43.6-25.1-19 5.1-30.2 24.7-25.1 43.6.6 2 1.3 4 2.2 6-18.5 6.5-28.3 26.8-21.8 45.4 3.4 9.7 10.8 17.4 20.4 21.2-4.9 4.3-8.5 9.9-10.6 16.1-2.8-.7-5.8-1.1-8.7-1.1-19.2 0-34.1 12.6-35.5 29.7-9.1 1.6-17.2 6.7-22.5 14.2-6-4.1-13-6.3-20.3-6.4-19.6 0-35.6 15.9-35.6 35.6 0 17.3 12.3 29.6 25.4 33.9l-.2.6c-1.5 4-2.2 8.2-2.2 12.4 0 22.2 21 35.1 35.5 35.6h.8c2.5 0 4.9-.4 7.3-1 2.8 19.4 20.8 32.9 40.2 30.2 7.8-1.1 14.9-4.7 20.4-10.4 29 33.7 43.2 81.2 42.2 141.4 0 .3.1.7.2 1-1.4 23.8-3 40.8-4.3 45.6-1.1.8-1.5 2.3-.9 3.5.6 1.1 1.7 1.7 2.9 1.7.3 0 .6-.1.9-.2 5.1-2 9.3-59.3 10.1-125.4 9.3-20.8 23-35.2 32.3-44.9l2.8-2.9c15.9 11.5 38.1 7.9 49.7-8 4.4-6 6.7-13.3 6.7-20.7 0-4.8-1.1-9.6-3.1-14h.2c15.4 0 27.9-10.9 32.8-22.2 2.7.6 5.4 1 8.1 1 19.7 0 35.6-15.9 35.6-35.6-.1-19.8-16.1-35.7-35.7-35.7zM306.2 163c1.6-.1 3.2-.2 4.8-.1 12.3.4 30.1 11.3 30.1 30 0 16.6-13.4 30-30 30-11.2 0-21.1-7.6-26.2-15.9 13.9-5.2 23.1-18.5 23.2-33.3 0-3.6-.6-7.2-1.9-10.7zm13.7 108c-4.5 2.8-9.7 4.3-15 4.4-6.7-.2-13.8-3.2-19.4-8.1-.2-.2-.4-.3-.6-.4-5.9-5.4-10.1-12.9-10.1-21.5-.1-13.4 10.2-22.3 14.2-25.2 6.2 5.3 14 8.3 22.2 8.5 5.2 0 10.3-1.1 15-3.3.8.8 1.6 1.7 2.3 2.6-7.4 6.1-13 15-13 26.4-.1 5.8 1.5 11.6 4.4 16.6zm-17.3-97.2c0 16.6-13.5 30-30 30s-30-13.4-30-30c0-13.4 10.1-23.2 18-27.2 8.1 10.7 22.6 14.3 34.8 8.6 2.7 3.2 7.2 10 7.2 18.6zm3.5-44.4c0 12.6-10.3 22.9-22.9 22.9-12.6 0-22.9-10.3-22.9-22.9 0-12.6 10.3-22.9 22.9-22.9 12.7 0 22.9 10.2 22.9 22.9zM281.6 101c-14 .9-25.4 11.8-26.7 25.8-8.5-2.1-18.8-10.3-18.8-22.4 0-6.1 2.5-11.9 6.8-16.1 4.2-4.3 10.1-6.8 16.1-6.8 12.5 0 20.9 11 22.6 19.5zm-30.5-89.3c16.6 0 30 13.4 30 30s-13.4 30-30 30-30-13.4-30-30 13.4-30 30-30zm-48.8 69c3.1-9 10.3-16 19.4-18.9 6.5 9.5 17.3 15.3 28.9 15.4-11.9 3.8-20 14.8-20.1 27.2 0 3.7.7 7.3 2.2 10.7-3.5.9-6.9 2.4-9.9 4.3-.1-.1-.2-.1-.4-.1-.5-.1-1-.3-1.5-.5-15.6-5.4-23.9-22.4-18.6-38.1zm33.4 39.4c4.7 6.3 11.5 10.7 19.2 12.4.4 3.2 1.3 6.4 2.7 9.3-10.6 5.6-20.6 17.7-20.6 32 0 1.9.2 3.8.5 5.6-1.4-.1-2.7-.4-4-.8.2-1.6.3-3.1.3-4.7 0-14.2-8.5-27.1-21.6-32.7 3.5-10.6 12.5-18.6 23.5-21.1zM198.2 144c16.6 0 30 13.4 30 30 0 14.9-9.8 27-23.7 29.5v-.4c0-19.6-15.9-35.5-35.6-35.6h-.6c1.6-11.8 12-23.5 29.9-23.5zm-12.3 90.4c9.6-5.2 16.2-14.5 18.1-25.2 5.6-.8 10.9-3 15.4-6.3.1 0 .2.1.3.1 14.9 2 26 14.7 26 29.8v1.9c-1.2 17.5-18.2 27.7-30 28.1-1.1 0-2.2 0-3.2-.1l-1.8-.3c-4.7-4.5-10.6-7.7-16.9-9.1-.1-.2-.2-.3-.3-.5-4.5-5.1-7.2-11.6-7.6-18.4zm.3 18c-2.1 0-4.2.2-6.2.5-1.1-5.3-3.3-10.2-6.5-14.5 2.4-.3 4.7-.8 7-1.6.6 5.5 2.6 10.9 5.7 15.6zm-17.3-79.3c16.6 0 30 13.4 30 30s-13.4 30-30 30-30-13.4-30-30 13.4-30 30-30zm-79 38.4c0-16.6 13.4-30 30-30 6.2.1 12.2 2 17.3 5.6-7.1 14-4.2 31 7.1 41.8-5.7 7.9-14.9 12.9-24.4 12.7-1.8 0-3.7-.2-5.5-.6-12.2-2.7-24.5-13.7-24.5-29.5zm60.7 75.8c-2.5.8-5.1 1.2-7.6 1.1-12.3-.4-30.1-11.3-30.1-30 0-3.6.6-7.1 1.9-10.5l.5-1.2c1.5.2 3.1.4 4.6.4h.4c11.3-.2 21.8-5.7 28.4-14.7 5.3 3.7 11.5 5.9 18 6.3.1.2.2.4.4.6 3.8 4.3 6.4 9.5 7.5 15.1-14.2 4.8-23.8 17.9-24 32.9zm35.5 30.7c-16.6 0-30-13.4-30-30s13.4-30 30-30 30 13.4 30 30c0 16.5-13.4 30-30 30zm70.5 62.1c-.3.7-.6 1.3-.8 2-.4 1.1-.1 2.3.8 3.1-.1 6.2-.3 12.2-.5 18.2-5.7-38.5-19.5-70.3-40.9-94.9 8.5-12 8.7-28 .6-40.2h.2c17.2-.1 31.8-12.4 34.9-29.4v-.3c.1-.5.2-.9.2-1.4 0-.2 0-.4.1-.6 0-.4.1-.9.1-1.3v-2.7c0-16.3-11.1-30.5-26.8-34.5 3.6-4 6.3-8.9 7.8-14.1 2.1.5 4.3.9 6.5 1 1.4 4.2 3.6 8 6.4 11.4 7.7 26.2 10.9 73.7 11.6 123.6l-.2.5c-.4.9-.3 2 .3 2.8.2 19.2.1 38.4-.3 56.8zm-3.9-176.8c7.9 5.3 17.5 7.3 26.8 5.4 1.5 2.7 3.3 5.3 5.5 7.5-5.2 4-15.8 14.1-15.7 29.2.1 9.3 4 18.1 10.7 24.5l-17.8 38.8c-1.3-42.2-4.3-81.3-9.5-105.4zm38.1 128.4c-7.9 8.3-19 20-28.1 36.2.1-15.4 0-31-.3-46.5l22-47.8c2.8 2.1 5.9 3.7 9.2 5-4.2 4.5-10.6 13.2-10.6 25.2 0 9.5 3.8 18.5 10.5 25.2l-2.7 2.7zm27.7 2.2c-6.4 0-12.6-2-17.7-5.8 0-1.5-1.3-2.7-2.8-2.7h-.3c-5.9-5.6-9.2-13.4-9.2-21.5 0-12.6 8.8-21.2 11.3-23.4 1.6.3 3.3.5 5 .5h.8c6.3-.1 12.4-1.9 17.6-5.4 5.4 6.7 12.9 11.4 21.2 13.5 2.7 4.5 4.1 9.5 4.1 14.7 0 16.7-13.4 30.1-30 30.1zm32.5-49.6c-1.4 0-2.8-.1-4.1-.3-10.4-1.8-25.8-12.5-25.8-29.7 0-10.4 5.6-18.4 12.6-23.5l.3-.2c5-3.7 11-5.8 17.2-6.3 2.1-.1 4.2.2 6.3.7-4 17 5 34.4 21.2 41-4.4 9.4-14.8 18.3-27.7 18.3zm41.1-21.2c-16.6 0-30-13.4-30-30s13.4-30 30-30 30 13.4 30 30-13.5 30-30 30z" stroke="#1d1d1b" stroke-width=".63" stroke-linecap="round" stroke-linejoin="round"></path></svg>