<svg data-v-4c622a5e="" xmlns="http://www.w3.org/2000/svg" viewBox="0 0 512 512" id="rhubarb"><path data-v-4c622a5e="" d="M410.8 183.2c-.5-1.5-1-2.6-1.2-3.3-3.1-9.8-1.4-14.8.5-20 2-5.8 4.1-11.8-1.2-22.7-1.9-4-3.9-7.6-5.8-11.2-7.4-13.9-13.2-24.9-11.5-42.4 2.2-23.6-15.1-30.5-27.8-35.5l-2.2-.9c-12.3-4.9-13.6-15.3-14.8-24.4-1-8-2.1-16.2-11.5-16.9h-.1c-8.6-.4-10.5 7-12.3 13.5-2 7.2-3.8 14.1-12.5 15.2-5 .6-10.1.5-15.2-.4-4.4-.6-8.5-1.1-13.7-.3-13.3 2.1-14.7 17.1-16 31.7-.9 10.5-1.9 21.3-7.1 26.7-12.7 13.1-17.5 14.8-45.2 20.5-8.7 1.8-23.6 11.7-28.9 25.5-3.3 8.7-2 17.5 3.7 25 .3.7.2 3.8.1 6.2-.3 9.7-.9 26 10 39.7 13.7 17.1 37.2 19.6 47.7 14 .6.3 1.5.9 2.3 1.4 5.5 3.5 16.4 10.5 31.4 8.2-8.5 17.5-44.3 85.1-76.5 129.5-33.6 46.4-108.6 118.3-109.4 119l-1.4 1.3.8 1.7c1.5 3.2 18.4 16.4 33.4 20.4 2.8.8 5.7 1.2 8.6 1.2 4 .1 7.9-1 11.1-3.3 16.6-11.8 54.4-58.1 88.9-115.1 26.1-43 48.2-105 58.8-134.8 2.1-5.8 3.9-11 5.1-14.2l.1.1c11.1 10.9 29.7 29.1 56.5 9 1-.2 5.3 0 9.1.3 16.3 1.1 46.6 3.1 53-14.9 5.9-15.7-3-39.6-6.8-49.8zM251 220.1c-3.1-2-5.1-3.3-7.1-2-7.4 4.7-28.8 3.6-41.5-12.3-9.7-12.1-9.1-27.1-8.8-36.1.2-4.9.3-7.6-1-9.4-4.7-6.3-5.8-13.1-3.1-20.1 4.3-11.4 17.5-20.5 25-22.1 27-5.5 33.9-7.4 48-22 6.5-6.8 7.6-18.5 8.6-29.9 1.4-15.4 2.9-25.6 11.5-26.9 4.4-.6 8-.2 12.1.4 5.5.9 11 1.1 16.6.4 12.2-1.6 15-11.7 17-19.1 1.2-4.3 2-6.9 3.4-8.3-2.3 10.3-7.9 35.6-9.6 50.6-1 8.9-2.1 17.7-3.3 26.2-5.9-9.5-20.5-24.8-21.2-25.5-1-1.1-2.7-1.1-3.8-.1-1.1 1-1.1 2.7-.1 3.8.2.2 18 18.9 21.7 26.9.4.9 1.3 1.5 2.3 1.6-.9 6.2-1.9 12.3-2.9 18.3-.7.8-.9 1.9-.5 2.9-1.1 6.6-2.3 13.1-3.6 19.5-6.9-14.4-21.9-25.6-29.1-31-1.3-1-2.3-1.7-2.8-2.1-.7-1-2.1-1.4-3.2-.9-1.4.6-2 2.2-1.3 3.5.4.9 1.2 1.5 4.1 3.7 7.4 5.6 27.1 20.3 30.2 37.1-3.1 14.5-6.4 28.3-10 41.5-1 .5-2 1.1-3 1.7-16.4-41.7-84-52.7-86.9-53.1-1.4-.2-2.8.8-3 2.2-.2 1.5.8 2.8 2.2 3.1.7.1 69.1 11.2 83.3 51.3.3.7.8 1.3 1.6 1.6 0 .1.1.1.1.2.8 1.1 2.4 1.4 3.5.6-3.2 11.3-6.6 22.1-10.1 32.5.1-.4.1-.8-.1-1.2l-1.1-1.6-1.9.5c-15.3 4.4-26.3-2.7-32.2-6.4zm-43.5 145.4c23.9-33 65.8-104.9 76.4-129.6-50.6 143.6-128.6 198.8-147.2 210.2 23.8-24.5 53-56.1 70.8-80.6zm-107 116.8c5.2-5.1 16.8-16.3 30.7-30.6 0 .1.1.3.2.4.3.6.8 1.1 1.4 1.3-1.2.8-1.5 2.3-.8 3.5 2.2 4 7.2 15.7 2.9 22-3.5 5-21.7 5-34.4 3.4zm42.7 16c-3 2.2-7.2 2.8-12.3 1.9-9-1.6-18.9-7.3-25.5-12 10.6.9 28.7 1.3 33.9-6.3 5.4-8 1.1-19.7-1.3-25 6.3 1.8 22 7.5 26.4 20.6-8.7 10-16.1 17.1-21.2 20.8zm269.5-266.8c-5 14.1-32.7 12.3-47.6 11.3-8-.5-10.6-.6-12.2.6-23.6 17.6-38.8 2.6-50-8.3l-3.9-3.7-1.4.3c-2 .4-2 .4-8.7 19.4-10.5 29.6-32.5 91.2-58.3 133.8-21.6 35.6-44.4 66.9-62.3 88.1-6.6-14.4-24.2-20-30-21.5 10.3-6.1 43.6-27.9 80.1-77.1 27.7-37.2 61-95.8 84.7-182 25.4-11.6 75.4-4.6 76-4.5h.2c1.5.1 2.8-.9 2.9-2.4.1-1.5-.9-2.8-2.4-2.9-2.2-.3-47.4-6.7-75 3.3 5.6-21.2 10.6-44 14.8-68.5 15.2-10 39.1-9.3 39.4-9.3 1.5 0 2.7-1.1 2.8-2.6.1-1.5-1.1-2.7-2.6-2.8-1 0-22.1-.7-38.4 7.7 2.5-14.9 4.6-30.5 6.4-46.7 1.7-15.5 8-43.4 10-51.9 2.7 1.2 3.5 4.7 4.4 11.7 1.2 9.5 2.9 22.6 18.1 28.7l2.2.9c12.9 5.1 26.3 10.4 24.4 30-1.9 19 4.6 31.2 12.1 45.4 1.9 3.5 3.8 7.1 5.7 11 4.3 8.9 2.9 13 .9 18.6-1.9 5.6-4.1 11.9-.5 23.4.3.8.7 2 1.3 3.6 3.6 9.6 12 32.3 6.9 46.4z" fill="#1d1d1b"></path></svg>